<?xml version="1.0" encoding="utf-8"?>
<!-- Generator: Adobe Illustrator 18.1.0, SVG Export Plug-In . SVG Version: 6.00 Build 0)  -->
<!DOCTYPE svg PUBLIC "-//W3C//DTD SVG 1.1//EN" "http://www.w3.org/Graphics/SVG/1.1/DTD/svg11.dtd">
<svg version="1.1" id="Layer_1" xmlns="http://www.w3.org/2000/svg" xmlns:xlink="http://www.w3.org/1999/xlink" x="0px" y="0px"
	 viewBox="181 271 250 250" style="enable-background:new 181 271 250 250;" xml:space="preserve">
<style type="text/css">
	.st0{fill:#BB9D6E;}
</style>
<path id="Your_Icon_2_" class="st0" d="M225.7,510.8c2.7,0.3,5.4-1.8,5.9-4.4c-0.3,2.9,2,5.7,5,6c2.9,0.3,5.7-2,6-5
	c0.3-3.2,1.1-11.4,1.5-14.4h0.2c19.5,1.7,41.6-12.9,46-43.8c2-13.3-1.6-26.7-9.7-37.5c-5.5-7.3-12.7-12.8-21-16.2
	c0.6-1.3,1.1-2.5,1.3-3.9c0.5-3.5-0.4-7-2.5-9.9s-5.3-4.7-8.8-5.2c-6.6-1-12.8,3.1-14.7,9.5c-0.2,0.6-0.3,1.2-0.4,1.9
	c-0.2,1.4-0.1,2.7,0.1,4.1c-1.5,0.2-2.8,0.4-4.3,0.7l-3.4-9.5c3.5-2.5,6.3-6.1,7.4-10.4c0.6-2.2,0.9-4.3,0.7-6.6l-1.7-24.2
	c-0.2-2.3-0.7-4.4-1.6-6.5l12.9-10.7c0.3,0.2,0.6,0.4,0.9,0.5c4.6,2.3,9.8,2.5,14.6,1l22.9-7.7c6-2.1,10.6-6.8,12.3-12.8v-0.1
	l11.4-0.2c1.9,4.6,5.6,8.5,10.5,10.6l22.5,9.2c4.7,2,9.8,2,14.4,0.1l5.1,6.5c-1.1,1.7-2,3.3-2.4,5.3c-0.8,2.5-1,5.2-0.6,7.8
	l3.2,24.1c1,7.2,5.9,12.8,12.2,15.4l-0.3,7.9c-16.9,0.6-33.1,9.4-42.2,25c-2.8,5-5,9.9-6.4,14.6c-6.1,21.1,2.1,39.4,15.4,48.2
	c0.1,0,0.1,0.1,0.2,0.2c-1.6,2.5-6,9.6-7.6,12.3c-1.7,2.5-0.9,6,1.8,7.5c2.5,1.7,6,0.9,7.5-1.8c-0.2,0.4-0.4,0.7-0.5,1.1
	c-0.7,2.3,0.2,4.8,2.3,6.2c2.5,1.7,6,0.9,7.5-1.8c0.7-1.1,6.1-9.6,7.9-12.6c0.1,0,0.2,0,0.2,0.1c17.5,8.8,43.3,3.6,59-23.3
	c11.8-20.3,7.7-45.5-8.2-61.3c1-0.9,2-2,2.5-3.1c0.6-1,1-2.1,1.3-3c1.7-5.9-0.9-12.1-6.2-15.2c-6.4-3.6-14.6-1.6-18.2,4.9
	c-0.6,1-1,2.1-1.3,3c-0.1,0.3-0.1,0.6-0.2,0.8c-1.4-0.4-2.7-0.7-4.2-1l0.3-8c6.8-1.6,12.3-6.7,14.2-13.4c0.8-2.5,1-5.2,0.6-7.8
	l-3.2-24c-1.5-10.5-11.2-17.8-21.6-16.4c-1.8,0.2-3.4,0.8-5,1.5l-4.9-6.2c0.8-1.2,1.5-2.3,2.1-3.6c4-9.9-0.8-21-10.5-25l-22.5-9.2
	c-4.7-2-10-2-14.7,0c-4.7,2.1-8.4,5.7-10.4,10.4c-0.3,0.7-0.5,1.4-0.7,2.1l-0.3,1.5l-10.7,0.2c0-0.1-0.1-0.2-0.1-0.4
	c-1.7-4.8-5.1-8.7-9.7-11.1c-4.6-2.3-9.8-2.5-14.6-1l-23,7.5c-6,2.1-10.6,6.8-12.3,12.8c-1.1,3.7-1,7.6,0.3,11.4
	c0.3,0.9,0.7,1.8,1.2,2.5L224,327.4c-3.4-2.2-7.5-3.3-11.7-3c-8,0.5-15,6.2-17.2,13.8c-0.6,2.2-0.9,4.3-0.7,6.6l1.6,24.2
	c0.7,10.4,9.5,18.2,19.7,17.8l3.4,9.3c-13.4,6-24,17.5-28.1,32.4c-0.7,2.2-1.2,4.5-1.5,6.8c-4.3,30.9,12.7,51,32.1,54.8
	c0.1,0,0.2,0,0.3,0.1c-0.4,3.5-1.4,13.7-1.5,14.9C220.5,507.8,222.8,510.5,225.7,510.8L225.7,510.8z M407,462.4
	c-9.3,16-27.5,27.6-44.6,19.1c-5.2-2.6-11.4-1.2-14.1,3.3c2.5-4.6,0.8-10.7-4.1-13.9c-15.9-10.6-14.9-32.3-5.6-48.1
	c11-18.9,35.2-25.3,54.1-14.4C411.5,419.2,418,443.4,407,462.4L407,462.4z M397.4,395.6c0.7-1.2,2.2-1.6,3.2-0.9
	c1,0.6,1.5,1.7,1.1,2.6l-0.2,0.6c-0.7,1.2-2.2,1.6-3.2,0.9C397.1,398.1,396.7,396.7,397.4,395.6z M383.1,341.1l3.2,24
	c0.2,1.2,0.1,2.3-0.2,3.3c-0.6,2-1.8,3.4-3.2,4.5l0.3-7.7c0.1-3-2.3-5.6-5.3-5.7c-2.5-0.1-4.8,1.7-5.5,3.9c-0.1,0.4-0.2,0.9-0.2,1.4
	l-0.2,6.6c-1-1.2-1.6-2.5-1.9-4l-3.2-24c-0.1-0.6-0.1-1.2-0.1-1.8l3.7,4.8c2,2.4,5.3,2.7,7.6,0.9c2.4-2,2.7-5.3,0.9-7.6l-4.4-5.6
	C378.9,333.9,382.5,336.9,383.1,341.1L383.1,341.1z M321.3,290.7c2.1-0.9,4.2-0.9,6.3,0l22.5,9.2c3.5,1.5,5.6,5.1,5,8.8l-2.6-3.3
	c-2-2.4-5.3-2.7-7.6-0.9c-1,0.8-1.6,1.8-2,2.7c-0.5,1.7-0.2,3.4,1,4.9l2.7,3.4c-1-0.1-1.9-0.2-2.6-0.6l-22.5-9.2
	c-0.5-0.2-1-0.5-1.4-0.8l4.1-0.1c3-0.1,5.4-2.5,5.4-5.6c-0.1-3-2.5-5.5-5.6-5.4l-6.6,0.1C318.2,292.7,319.5,291.4,321.3,290.7
	L321.3,290.7z M251.2,300.5l22.9-7.7c2.2-0.7,4.3-0.6,6.3,0.4c0.9,0.5,1.8,1.1,2.4,1.9l-4.3,0.1c-2.5,0.1-4.5,1.8-5.2,3.9
	c-0.2,0.5-0.2,1.1-0.2,1.7c0.1,3,2.5,5.5,5.6,5.4l4.2-0.1c-1,1.1-2.2,2-3.4,2.4l-22.9,7.7c-0.6,0.2-1.1,0.3-1.7,0.4l3.9-3.2
	c2.3-2,2.6-5.4,0.8-7.6c-2-2.3-5.4-2.6-7.6-0.8l-6.1,5C245.2,305.8,247.5,301.8,251.2,300.5L251.2,300.5z M207.4,368l-1.6-24.2
	c-0.3-4.4,3.2-8.4,7.6-8.7h1.4l-3.6,3c-0.9,0.8-1.6,1.8-1.9,2.6c-0.5,1.7-0.2,3.5,1.1,5c2,2.3,5.4,2.6,7.6,0.8l4.1-3.3l1.6,23.7
	c0.1,1,0,2-0.3,2.7c-0.2,0.8-0.6,1.6-1,2.2l-2-5.3c-1.1-2.8-4.2-4.3-7-3.2c-1.8,0.7-2.8,2.1-3.3,3.6c-0.3,1.1-0.3,2.2,0.1,3.3
	l1.7,4.4C209.4,373.5,207.6,371,207.4,368L207.4,368z M245.5,391.2c-0.2-0.3-0.6-1-0.5-1.8c0.2-1.4,1.5-2.2,2.6-2.1
	c0.9,0.1,1.4,0.7,1.6,1c0.2,0.3,0.6,1,0.5,1.8c0,0.1,0,0.2-0.1,0.3c-0.3,1.2-1.5,1.9-2.5,1.8C246.2,392,245.8,391.5,245.5,391.2
	L245.5,391.2z M200.9,436.6c3-21.6,23.1-36.7,44.7-33.6c10.5,1.5,19.8,6.9,26.1,15.4c6.4,8.4,9,18.9,7.5,29.3
	c-3.3,24.2-19.8,35.6-34.1,34.4c-5.9-0.5-11,3.1-11.8,8.3c0.6-5.2-3.3-10.2-9-11.3C205.5,475.4,198.3,454.9,200.9,436.6L200.9,436.6
	z"/>
</svg>
