<svg xmlns="http://www.w3.org/2000/svg" viewBox="0 0 14400 14400" enable-background="new 0 0 14400 14400"><style type="text/css">.st0{fill:#BB9D6E;}</style><path class="st0" d="M7115.5 7322.3c2.9.3 5.6-1.8 6.1-4.6-.3 3.1 2 5.9 5.2 6.2 3.1.3 5.9-2 6.2-5.2.3-3.4 1.1-11.9 1.5-15h.2c20.3 1.7 43.3-13.5 47.9-45.7 2-13.9-1.6-27.8-10.1-39-5.7-7.6-13.3-13.4-21.9-16.9.6-1.3 1.1-2.6 1.3-4.1.5-3.7-.4-7.3-2.7-10.3-2.2-3-5.5-4.9-9.2-5.4-6.8-1-13.4 3.3-15.3 9.9-.2.6-.3 1.2-.4 1.9-.2 1.4-.1 2.9.1 4.3-1.5.2-3 .4-4.5.7l-3.6-9.9c3.7-2.6 6.5-6.3 7.7-10.8.6-2.2.9-4.5.7-6.8l-1.7-25.2c-.2-2.4-.7-4.6-1.6-6.7l13.5-11.1c.3.2.6.4.9.5 4.8 2.4 10.2 2.7 15.2 1l23.9-8.1c6.2-2.1 11-7.1 12.8-13.4v-.1l11.9-.2c1.9 4.8 5.8 8.9 10.9 11l23.4 9.6c4.9 2 10.2 2 15 .1l5.3 6.7c-1.1 1.7-2 3.5-2.5 5.5-.8 2.7-1 5.4-.6 8.2l3.4 25.1c1 7.5 6.1 13.4 12.7 16l-.3 8.3c-17.6.6-34.5 9.8-43.9 26.1-3 5.2-5.2 10.3-6.6 15.2-6.3 22 2.1 41.1 16 50.3.1 0 .1.1.2.2-1.6 2.7-6.2 10-8 12.8-1.7 2.7-.9 6.2 1.8 7.9 2.7 1.7 6.2.9 7.9-1.8-.2.4-.4.7-.5 1.1-.7 2.4.2 5 2.4 6.4 2.7 1.7 6.2.9 7.9-1.8.7-1.1 6.3-10 8.3-13.2.1 0 .2 0 .2.1 18.2 9.2 45.2 3.8 61.5-24.3 12.3-21.2 8.1-47.4-8.6-63.9 1-.9 2-2 2.7-3.3.6-1 1-2.1 1.3-3.2 1.7-6.1-.9-12.6-6.4-15.8-6.6-3.8-15.2-1.6-19 5.1-.6 1-1 2.1-1.3 3.2-.1.3-.1.6-.2.8-1.4-.4-2.9-.7-4.4-1l.3-8.4c7.1-1.6 12.8-6.9 14.8-14 .8-2.7 1-5.4.6-8.2l-3.4-25c-1.5-10.9-11.6-18.6-22.5-17.1-1.8.2-3.6.8-5.2 1.5l-5.1-6.4c.8-1.2 1.5-2.4 2.1-3.8 4.2-10.3-.8-21.9-10.9-26.1l-23.4-9.6c-4.9-2-10.4-2-15.3 0-4.9 2.1-8.8 5.9-10.8 10.8-.3.7-.5 1.4-.7 2.1l-.3 1.5-11.1.2c0-.1-.1-.2-.1-.4-1.7-5-5.3-9.1-10.1-11.5-4.8-2.4-10.2-2.7-15.2-1l-23.9 8.1c-6.2 2.1-11 7.1-12.8 13.4-1.1 3.9-1 8 .3 11.9.3.9.7 1.8 1.2 2.7l-12.9 10.7c-3.6-2.3-7.8-3.5-12.2-3.2-8.4.5-15.6 6.4-17.9 14.4-.6 2.2-.9 4.5-.7 6.8l1.6 25.2c.7 10.8 9.9 19 20.5 18.6l3.6 9.7c-14 6.2-25 18.3-29.3 33.7-.7 2.3-1.2 4.7-1.5 7.1-4.5 32.2 13.3 53.1 33.4 57.1.1 0 .2 0 .3.1-.4 3.7-1.4 14.3-1.5 15.5 0 3.1 2.3 5.9 5.4 6.2zm189-50.5c-9.7 16.7-28.7 28.8-46.5 19.9-5.4-2.8-11.9-1.2-14.7 3.5 2.7-4.8.8-11.1-4.3-14.5-16.6-11-15.5-33.6-5.8-50.2 11.4-19.7 36.7-26.4 56.4-15 19.6 11.3 26.3 36.6 14.9 56.3zm-10.1-69.6c.7-1.2 2.2-1.6 3.4-.9 1 .6 1.5 1.7 1.1 2.8l-.2.6c-.7 1.2-2.2 1.6-3.4.9-1.2-.7-1.6-2.3-.9-3.4zm-14.9-56.8l3.4 25c.2 1.2.1 2.4-.2 3.5-.6 2-1.8 3.6-3.4 4.7l.3-8.1c.1-3.2-2.4-5.8-5.5-5.9-2.7-.1-5 1.7-5.7 4.1-.1.4-.2.9-.2 1.4l-.2 6.8c-1-1.2-1.6-2.6-1.9-4.2l-3.4-25c-.1-.6-.1-1.2-.1-1.8l3.9 5c2 2.5 5.5 2.9 8 .9s2.9-5.5.9-8l-4.6-5.8c4.4-.1 8.1 3 8.7 7.4zm-64.4-52.5c2.1-.9 4.4-.9 6.5 0l23.4 9.6c3.7 1.5 5.8 5.3 5.2 9.2l-2.8-3.5c-2-2.5-5.5-2.9-8-.9-1 .8-1.6 1.8-2 2.9-.5 1.7-.2 3.6 1 5.1l2.9 3.6c-1-.1-1.9-.2-2.8-.6l-23.4-9.6c-.5-.2-1-.5-1.4-.8l4.3-.1c3.2-.1 5.6-2.7 5.6-5.8-.1-3.2-2.7-5.7-5.8-5.6l-6.8.1c.9-1.6 2.3-2.9 4.1-3.6zm-73 10.2l23.9-8.1c2.2-.7 4.5-.6 6.5.4.9.5 1.8 1.1 2.5 1.9l-4.5.1c-2.6.1-4.7 1.8-5.4 4.1-.2.5-.2 1.1-.2 1.7.1 3.2 2.7 5.7 5.8 5.6l4.4-.1c-1 1.1-2.2 2-3.6 2.5l-23.9 8.1c-.6.2-1.1.3-1.7.4l4.1-3.4c2.4-2 2.8-5.6.8-8-2-2.4-5.6-2.8-8-.8l-6.3 5.2c-.7-4.1 1.7-8.3 5.6-9.6zm-45.7 70.4l-1.6-25.2c-.3-4.6 3.4-8.8 8-9.1h1.4l-3.8 3.2c-.9.8-1.6 1.8-1.9 2.8-.5 1.7-.2 3.7 1.1 5.2 2 2.4 5.6 2.8 8 .8l4.3-3.5 1.6 24.7c.1 1 0 2-.3 2.9-.2.8-.6 1.6-1 2.3l-2-5.5c-1.1-3-4.4-4.5-7.3-3.4-1.8.7-3 2.1-3.5 3.8-.3 1.1-.3 2.3.1 3.5l1.7 4.6c-2.7-1.4-4.6-4-4.8-7.1zm39.7 24.1c-.2-.3-.6-1-.5-1.8.2-1.4 1.5-2.3 2.8-2.1.9.1 1.4.7 1.6 1 .2.3.6 1 .5 1.8 0 .1 0 .2-.1.3-.3 1.2-1.5 1.9-2.7 1.8-.8-.2-1.3-.7-1.6-1zm-46.5 47.3c3.2-22.5 24.1-38.2 46.6-35.1 10.9 1.5 20.6 7.2 27.2 16 6.6 8.8 9.4 19.7 7.9 30.6-3.5 25.2-20.6 37.1-35.6 35.9-6.1-.5-11.4 3.3-12.3 8.7.6-5.4-3.5-10.6-9.4-11.8-19.6-3.8-27.1-25.2-24.4-44.3z" id="Your_Icon_2_"/></svg>