<?xml version="1.0" encoding="utf-8"?>
<!-- Generator: Adobe Illustrator 18.1.0, SVG Export Plug-In . SVG Version: 6.00 Build 0)  -->
<!DOCTYPE svg PUBLIC "-//W3C//DTD SVG 1.1//EN" "http://www.w3.org/Graphics/SVG/1.1/DTD/svg11.dtd">
<svg version="1.1" id="Layer_1" xmlns="http://www.w3.org/2000/svg" xmlns:xlink="http://www.w3.org/1999/xlink" x="0px" y="0px"
	 viewBox="181 271 250 250" style="enable-background:new 181 271 250 250;" xml:space="preserve">
<style type="text/css">
	.st0{fill:#BB9D6E;}
</style>
<g>
	<path class="st0" d="M366.3,406.5c11.3-3.3,22.9-7.9,34.1-13.9c17.9-10.5,27.1,0.4,20.4,16.8c-5.7,15.6-35.8,44.3-62.1,50.9
		c-10.1-7.2-29.9-11.9-52.7-12c-22.8,0.1-42.6,5-52.7,12c-26.3-6.6-56.5-35.4-62.1-50.9c-6.7-16.4,2.5-27.2,20.4-16.8
		c11.3,6.2,22.8,10.7,34.1,14c24.1,7.3,46.3,9,57.7,9h6.4C321.3,415.3,342.9,413.5,366.3,406.5L366.3,406.5z"/>
	<path id="XMLID_1_" class="st0" d="M333.9,333.5c9.4,4.7,24.6,48.8,30.5,66.9c-22.6,6.6-43.3,8.3-54.5,8.5h-6.4
		c-11.3,0-32.5-1.6-55.7-8.5c5.9-18.1,21.1-62.1,30.5-66.9c10.8-5.4,19.9,3.5,27.4,4.4h-1.4c0.6,0.1,1.1,0.1,1.7,0
		c0.6,0.1,1.2,0,1.7,0h-1.4C313.8,337.1,323.1,328.2,333.9,333.5z M330.1,367.8c0-1.9-1.5-3.5-3.5-3.5c-1.7,0-3.2,1.3-3.5,3l-11-1.5
		l-4.8-9.8c1.2-0.5,2.2-1.7,2.2-3.3c0-1.9-1.5-3.5-3.5-3.5s-3.5,1.5-3.5,3.5c0,1.4,0.9,2.7,2.2,3.3l-4.8,9.7l-11,1.5
		c-0.2-1.7-1.7-3-3.5-3c-1.9,0-3.5,1.5-3.5,3.5s1.5,3.5,3.5,3.5c1.1,0,2.2-0.6,2.9-1.4l7.7,7.5l-1.9,11.4c-0.4-0.2-0.9-0.3-1.3-0.3
		c-1.9,0-3.5,1.5-3.5,3.5s1.5,3.5,3.5,3.5s3.5-1.5,3.5-3.5c0-0.8-0.2-1.4-0.6-1.9l10.4-5.5l10.3,5.4c-0.4,0.6-0.6,1.2-0.6,1.9
		c0,1.9,1.5,3.5,3.5,3.5c2,0,3.5-1.5,3.5-3.5c0-2-1.5-3.5-3.5-3.5c-0.5,0-1,0.1-1.3,0.3l-1.9-11.4l7.7-7.5c0.6,0.9,1.6,1.4,2.9,1.4
		C328.5,371.3,330.1,369.8,330.1,367.8L330.1,367.8z"/>
</g>
</svg>
