<svg xmlns="http://www.w3.org/2000/svg" viewBox="0 0 14400 14400" enable-background="new 0 0 14400 14400"><style type="text/css">.st0{fill:#BB9D6E;}</style><path class="st0" d="M7260.1 7204.3c11.5-3.4 23.4-8.1 34.8-14.3 18.3-10.7 27.7.4 20.9 17.1-5.8 15.8-36.6 45.3-63.5 52-10.3-7.3-30.5-12.2-53.8-12.3-23.3.1-43.5 5.1-53.8 12.3-26.9-6.7-57.7-36.2-63.5-52-6.8-16.7 2.6-27.8 20.9-17.1 11.5 6.3 23.3 10.9 34.8 14.4 24.6 7.4 47.2 9.2 59 9.2h6.5c11.8-.2 33.8-2.1 57.7-9.3z"/><path class="st0" d="M7226.9 7129.8c9.6 4.8 25.2 49.8 31.2 68.3-23.1 6.7-44.3 8.5-55.7 8.7h-6.5c-11.5 0-33.2-1.7-57-8.7 6-18.5 21.6-63.5 31.2-68.3 11-5.5 20.4 3.6 28 4.5h-1.5c.6.1 1.2.1 1.8 0 .6.1 1.3 0 1.8 0h-1.5c7.8-.9 17.2-10 28.2-4.5zm-3.8 35c0-2-1.6-3.6-3.6-3.6-1.8 0-3.3 1.4-3.6 3.1l-11.2-1.6-4.9-10c1.3-.5 2.3-1.8 2.3-3.4 0-2-1.6-3.6-3.6-3.6s-3.6 1.6-3.6 3.6c0 1.5.9 2.8 2.3 3.4l-4.9 9.9-11.2 1.6c-.2-1.8-1.8-3.1-3.6-3.1-2 0-3.6 1.6-3.6 3.6s1.6 3.6 3.6 3.6c1.2 0 2.3-.6 3-1.5l7.9 7.7-2 11.6c-.4-.2-.9-.3-1.4-.3-2 0-3.6 1.6-3.6 3.6s1.6 3.6 3.6 3.6 3.6-1.6 3.6-3.6c0-.8-.2-1.5-.6-2l10.6-5.6 10.5 5.5c-.4.6-.6 1.3-.6 2 0 2 1.6 3.6 3.6 3.6s3.6-1.6 3.6-3.6-1.6-3.6-3.6-3.6c-.5 0-1 .1-1.4.3l-2-11.6 7.9-7.7c.6.9 1.7 1.5 3 1.5 1.9.2 3.5-1.4 3.5-3.4z" id="XMLID_1_"/></svg>